<?xml version="1.0" standalone="no"?>
<!DOCTYPE svg PUBLIC "-//W3C//DTD SVG 20010904//EN"
 "http://www.w3.org/TR/2001/REC-SVG-20010904/DTD/svg10.dtd">
<svg version="1.0" xmlns="http://www.w3.org/2000/svg"
 width="110.000000pt" height="110.000000pt" viewBox="0 0 110.000000 110.000000"
 preserveAspectRatio="xMidYMid meet">
<metadata>
Created by potrace 1.14, written by Peter Selinger 2001-2017
</metadata>
<g transform="translate(0.000000,110.000000) scale(0.100000,-0.100000)"
fill="#000000" stroke="none">
<path d="M21 1090 c-4 -3 -8 -249 -7 -547 l0 -543 215 0 216 0 0 203 0 202 97
0 c60 1 99 -3 101 -10 1 -5 2 -97 2 -202 l-1 -193 213 0 c161 0 213 3 214 13
0 6 1 250 2 540 2 462 0 530 -13 536 -12 5 -344 7 -407 2 -10 -1 -13 -47 -13
-194 l0 -194 -94 -1 c-64 0 -96 3 -99 11 -2 7 -4 94 -3 195 1 115 -3 182 -9
183 -40 4 -408 3 -414 -1z"/>
</g>
</svg>
